<svg xmlns="http://www.w3.org/2000/svg"  viewBox="0 0 64 64" width="48px" height="48px"><path d="M 32 9 C 25.519 9 22.662109 12.755859 22.662109 12.755859 C 22.662109 12.755859 13 13.514 13 27 L 13 32 C 13 32 12 33.499484 12 35.646484 C 12 38.521484 14.338 41.181 16 42 C 17.896 49.908 27 55 32 55 C 37 55 46.104 49.908 48 42 C 49.662 41.181 52 38.875 52 36 C 52 33.853 51 32 51 32 L 51 27 C 51 15.577 43.509 9 32 9 z M 24.589844 23.566406 C 28.391844 27.322406 34.351281 29.858234 42.863281 29.990234 L 44.867188 34 L 47.59375 34 C 47.808082 34.494993 48 35.159263 48 36 C 48 38.248 44.548828 39.242188 44.548828 39.242188 C 44.548828 45.470187 35.417 51 32 51 C 28.583 51 19.451172 45.865188 19.451172 39.242188 C 19.451172 39.242188 16 37.852484 16 35.646484 C 16 34.945566 16.194315 34.401766 16.410156 34 L 19.484375 34 C 19.529375 30.759 23.073844 24.923406 24.589844 23.566406 z M 26.5 35 C 25.672 35 25 35.672 25 36.5 C 25 37.328 25.672 38 26.5 38 C 27.328 38 28 37.328 28 36.5 C 28 35.672 27.328 35 26.5 35 z M 37.5 35 C 36.672 35 36 35.672 36 36.5 C 36 37.328 36.672 38 37.5 38 C 38.328 38 39 37.328 39 36.5 C 39 35.672 38.328 35 37.5 35 z M 29.5 43 C 28.948 43 28.5 43.448 28.5 44 C 28.5 44.552 28.948 45 29.5 45 L 34.5 45 C 35.052 45 35.5 44.552 35.5 44 C 35.5 43.448 35.052 43 34.5 43 L 29.5 43 z"/></svg>